# xmcd
#
# Track frame offsets:
#	150
#	19527
#	33502
#	47257
#	67537
#	81907
#	104347
#	130850
#	146360
#	163995
#	191809
#	214190
#	235407
#	260560
#
# Disc length: 3714 seconds
#
# Revision: 0
# Processed by: cddbd v1.5.2PL0 Copyright (c) Steve Scherf et al.
# Submitted via: EasyCDDAExtractor 12.1.0.1
#
DISCID=bd0e800e
DTITLE=Various Artist - O.G. Funk - Locking, Vol. 1
DYEAR=1900
DGENRE=
TTITLE0=Dennis Coffey and Detroit Guitar Band - Scorpio
TTITLE1=Ohio Players - O-H-I-O
TTITLE2=Kool and the Gang - Jungle Boogie
TTITLE3=Hollywood Swinging - Hollywood Swinging
TTITLE4=Tower Of Power - Drop It in the Slot
TTITLE5=Rick James - High on Your Love Suite - One Mo Hit (Of Your Love)
TTITLE6=Hamilton Bohannon - Let's Start the Dance
TTITLE7=James Brown - Body Heat - Pt. 1
TTITLE8=James Brown - I Refuse to Lose
TTITLE9=James Brown - Get Up Offa That Thing
TTITLE10=Brothers Pride - Welcome to the Rhythm Lounge
TTITLE11=Brothers Pride - Baby, You Look Good to Me
TTITLE12=Black Derby - Hit It
TTITLE13=Cool Pockets - Didn't Come to Sit Down
EXTD=
EXTT0=
EXTT1=
EXTT2=
EXTT3=
EXTT4=
EXTT5=
EXTT6=
EXTT7=
EXTT8=
EXTT9=
EXTT10=
EXTT11=
EXTT12=
EXTT13=
PLAYORDER=
